
<!-- Generator: visioncortex VTracer 0.6.4 -->
<svg version="1.1" xmlns="http://www.w3.org/2000/svg" viewBox="0 0 1024 1024" preserveAspectRatio="xMidYMid meet">
<path d="M0 0 C3 1 3 1 3 1 Z M10 1 C11.98 1.99 11.98 1.99 14 3 C12.68 2.67 11.36 2.34 10 2 C10 1.67 10 1.34 10 1 Z M439 8 C442 9 442 9 442 9 Z M-102 18 C-100 19 -100 19 -100 19 Z M133.178 29.71 C134.279 30.685 135.378 31.662 136.475 32.642 C137.872 33.886 139.287 35.11 140.703 36.332 C156.05 49.724 168.557 65.94 179.195 83.242 C180.669 85.494 182.003 87.226 184 89 C185.172 87.045 186.337 85.086 187.5 83.125 C188.15 82.034 188.799 80.944 189.469 79.82 C191.159 77.242 191.159 77.242 191 75 C192.653 73.32 194.323 71.656 196 70 C197.718 67.85 199.401 65.692 201.062 63.5 C205.819 57.327 210.919 51.594 216.273 45.938 C218.138 43.962 219.901 41.938 221.621 39.836 C224.755 36.1 228.26 33.11 232 30 C233.06 29.109 233.06 29.109 234.141 28.199 C252.816 12.859 273.231 0.99 295.445 -8.477 C297.401 -9.315 299.348 -10.178 301.242 -11.148 C303.15 -12.073 304.943 -12.494 307 -13 C308.334 -13.413 309.665 -13.837 310.992 -14.27 C365.326 -31.58 427.806 -29.171 479 -3 C479.756 -2.619 480.511 -2.239 481.29 -1.847 C491.285 3.204 500.904 8.438 510 15 C511.004 15.719 512.008 16.439 513.043 17.18 C518.888 21.461 524.381 25.98 529.707 30.891 C531.748 32.768 533.827 34.577 535.938 36.375 C544.83 44.156 552.803 52.634 560 62 C560.52 62.67 561.039 63.341 561.575 64.031 C585.461 95.016 601.067 129.717 609 168 C609.253 169.214 609.253 169.214 609.511 170.453 C614.328 194.474 614.743 219.648 613 244 C612.943 244.839 612.887 245.677 612.828 246.541 C610.421 279.882 600.768 312.267 588 343 C587.628 343.897 587.255 344.793 586.872 345.717 C575.59 372.509 560.499 398.103 544 422 C543.245 423.104 542.489 424.208 541.734 425.312 C539.506 428.554 537.258 431.779 535 435 C534.624 435.539 534.249 436.078 533.862 436.634 C524.092 450.637 513.625 464.111 502.504 477.066 C500.168 479.804 497.889 482.577 495.625 485.375 C486.95 496.018 477.845 506.28 468.511 516.346 C467.381 517.583 466.264 518.831 465.153 520.085 C459.221 526.769 453.008 533.14 446.684 539.449 C445.617 540.517 444.55 541.584 443.484 542.652 C441.266 544.871 439.046 547.089 436.825 549.305 C433.999 552.125 431.178 554.95 428.357 557.777 C426.162 559.976 423.964 562.172 421.765 564.368 C420.725 565.408 419.685 566.449 418.645 567.491 C413.44 572.705 408.21 577.842 402.598 582.622 C400.451 584.474 398.473 586.466 396.5 588.5 C393.191 591.849 389.792 594.997 386.223 598.062 C383.48 600.453 380.802 602.911 378.125 605.375 C377.087 606.328 376.05 607.281 375.012 608.234 C374.504 608.7 373.997 609.166 373.474 609.646 C367.967 614.703 362.445 619.679 356.625 624.375 C352.612 627.62 348.776 630.987 345 634.5 C340.448 638.731 335.754 642.723 330.914 646.621 C327.56 649.359 324.278 652.172 321 655 C315.988 659.318 310.918 663.549 305.781 667.719 C302.636 670.298 299.535 672.927 296.438 675.562 C291.04 680.148 285.551 684.601 280 689 C278.846 689.924 277.692 690.848 276.539 691.773 C270.405 696.694 264.257 701.594 258.062 706.438 C252.971 710.419 247.943 714.473 242.938 718.562 C237.614 722.908 232.245 727.176 226.78 731.341 C223.518 733.828 220.287 736.348 217.077 738.9 C214.067 741.287 211.036 743.646 208 746 C207.222 746.606 206.444 747.211 205.642 747.835 C203.127 749.781 200.597 751.705 198.062 753.625 C197.27 754.241 196.477 754.858 195.66 755.493 C191.202 758.835 187.786 761.343 182 761 C174.868 758.457 169.013 754.034 163.188 749.312 C161.615 748.063 160.042 746.815 158.469 745.566 C157.328 744.654 157.328 744.654 156.164 743.723 C153.199 741.362 150.198 739.052 147.188 736.75 C146.156 735.957 145.125 735.164 144.062 734.348 C142.003 732.769 139.94 731.193 137.875 729.621 C131.039 724.408 124.333 719.055 117.674 713.617 C113.505 710.214 109.3 706.866 105.039 703.578 C92.258 693.686 79.839 683.301 67.53 672.831 C64.239 670.035 60.914 667.285 57.562 664.562 C51.554 659.669 45.685 654.62 39.816 649.562 C37.997 647.997 36.173 646.439 34.348 644.883 C29.114 640.418 23.902 635.943 18.812 631.312 C13.703 626.674 8.359 622.346 3 618 C0.6 616.05 -1.712 614.085 -4 612 C-4 611.34 -4 610.68 -4 610 C-4.572 609.742 -5.145 609.484 -5.734 609.219 C-8.211 607.886 -10.134 606.349 -12.25 604.5 C-12.956 603.892 -13.663 603.283 -14.391 602.656 C-16 601 -16 601 -16 599 C-16.595 598.731 -17.191 598.462 -17.804 598.186 C-20.007 596.996 -21.398 595.82 -23.129 594.031 C-23.969 593.175 -23.969 593.175 -24.826 592.301 C-25.399 591.707 -25.972 591.112 -26.562 590.5 C-27.707 589.321 -28.854 588.143 -30.004 586.969 C-30.507 586.447 -31.011 585.926 -31.53 585.389 C-33.156 583.774 -33.156 583.774 -36 582 C-36 581.34 -36 580.68 -36 580 C-36.586 579.738 -37.173 579.477 -37.777 579.207 C-40.128 577.93 -41.684 576.569 -43.575 574.684 C-44.256 574.009 -44.936 573.335 -45.637 572.641 C-46.722 571.55 -46.722 571.55 -47.828 570.438 C-48.577 569.69 -49.326 568.943 -50.098 568.174 C-51.677 566.596 -53.254 565.015 -54.828 563.433 C-57.248 561.002 -59.678 558.583 -62.109 556.164 C-63.641 554.631 -65.173 553.097 -66.703 551.562 C-67.434 550.835 -68.165 550.108 -68.919 549.359 C-69.587 548.685 -70.254 548.011 -70.942 547.316 C-71.534 546.723 -72.126 546.129 -72.736 545.518 C-74 544 -74 544 -74 542 C-74.99 541.67 -75.98 541.34 -77 541 C-78.605 539.441 -78.605 539.441 -80.188 537.562 C-80.717 536.945 -81.247 536.328 -81.793 535.691 C-83 534 -83 534 -83 532 C-70.873 530.471 -56.856 529.327 -46.571 537.024 C-37.858 544.304 -30.414 552.972 -23.035 561.564 C-19.67 565.445 -15.979 568.762 -12 572 C-10.648 573.314 -9.31 574.643 -8 576 C-4.896 579.146 -1.681 582.073 1.668 584.953 C4.663 587.582 7.58 590.289 10.5 593 C14.632 596.831 18.79 600.616 23.055 604.301 C25.337 606.294 27.572 608.335 29.812 610.375 C33.275 613.504 36.807 616.505 40.438 619.438 C44.241 622.513 47.901 625.688 51.5 629 C55.866 633.015 60.365 636.792 64.98 640.516 C68.567 643.466 72.065 646.508 75.562 649.562 C80.451 653.826 85.394 657.976 90.492 661.988 C93.462 664.371 96.356 666.839 99.25 669.312 C104.847 674.084 110.582 678.651 116.383 683.172 C120.197 686.146 123.976 689.163 127.75 692.188 C128.701 692.949 128.701 692.949 129.671 693.726 C132.354 695.875 135.034 698.027 137.711 700.184 C143.844 705.116 150.069 709.925 156.318 714.709 C157.993 715.994 159.663 717.285 161.332 718.578 C163.498 720.256 165.67 721.927 167.848 723.59 C169.948 725.195 172.039 726.813 174.121 728.441 C175.092 729.183 176.062 729.924 177.062 730.688 C177.92 731.351 178.777 732.015 179.66 732.699 C181.841 734.17 181.841 734.17 183.969 733.953 C186.755 732.646 189 730.944 191.438 729.062 C191.963 728.66 192.488 728.257 193.029 727.843 C194.138 726.991 195.245 726.136 196.35 725.279 C197.909 724.07 199.476 722.871 201.043 721.672 C209.663 715.073 218.228 708.403 226.783 701.721 C228.354 700.502 229.931 699.291 231.514 698.087 C232.329 697.464 233.144 696.841 233.984 696.199 C234.729 695.634 235.474 695.069 236.241 694.487 C238.113 693.103 238.113 693.103 239 691 C240.516 690.165 240.516 690.165 242.062 689.312 C245.681 687.314 248.519 684.882 251.574 682.117 C254.59 679.485 257.72 677.024 260.875 674.562 C261.477 674.092 262.08 673.621 262.701 673.136 C263.898 672.201 265.096 671.267 266.294 670.333 C268.768 668.4 271.23 666.453 273.688 664.5 C274.454 663.892 275.221 663.283 276.012 662.656 C277.962 661.084 277.962 661.084 279.469 659.527 C281.461 657.54 283.621 655.827 285.812 654.062 C290.269 650.442 294.652 646.75 299 643 C303.203 639.376 307.435 635.804 311.75 632.312 C316.198 628.702 320.469 624.935 324.703 621.078 C326.775 619.204 328.873 617.373 331 615.562 C333.893 613.159 333.893 613.159 336 611 C337.035 610.096 338.078 609.202 339.125 608.312 C341.62 606.184 344.1 604.041 346.562 601.875 C351.517 597.53 356.528 593.25 361.535 588.965 C362.104 588.477 362.672 587.99 363.258 587.488 C364.441 586.478 365.627 585.472 366.816 584.469 C367.412 583.965 368.007 583.461 368.621 582.941 C369.15 582.496 369.679 582.051 370.224 581.592 C371.607 580.352 372.941 579.058 374.253 577.744 C376.877 575.122 379.564 572.592 382.281 570.068 C393.29 559.825 403.932 549.222 414.551 538.579 C417.135 535.99 419.723 533.405 422.313 530.821 C424.343 528.795 426.371 526.766 428.397 524.736 C429.807 523.326 431.218 521.918 432.63 520.509 C437.072 516.051 441.393 511.547 445.48 506.759 C448.272 503.529 451.247 500.468 454.188 497.375 C460.518 490.667 466.588 483.787 472.531 476.735 C474.053 474.937 475.589 473.151 477.129 471.367 C486.48 460.537 495.304 449.359 504 438 C489.38 437.336 474.804 436.911 460.168 437.008 C458.855 437.016 457.542 437.024 456.189 437.032 C450.81 437.068 445.431 437.11 440.052 437.171 C437.34 437.202 434.627 437.224 431.915 437.238 C429.401 437.251 426.888 437.276 424.375 437.314 C418.165 437.333 413.402 437.214 408 434 C406 431 406 431 406 427.5 C407 424 407 424 409.656 422.402 C412.912 421.037 416.1 420.006 419.5 419.062 C427.329 416.705 432.16 413.722 437 407 C441.589 397.134 440.158 384.302 440.13 373.637 C440.125 371.109 440.13 368.582 440.137 366.055 C440.136 364.435 440.135 362.815 440.133 361.195 C440.135 360.446 440.137 359.697 440.139 358.926 C440.122 355.142 439.79 351.692 439 348 C439.318 346.33 439.65 344.663 440 343 C439.67 342.01 439.34 341.02 439 340 C439.33 339.67 439.66 339.34 440 339 C440.299 334.822 440.126 330.753 439.438 326.625 C439 324 439 324 440 321 C439.814 320.257 439.629 319.515 439.438 318.75 C438.857 315.102 439.846 312.463 441 309 C440.34 308.67 439.68 308.34 439 308 C439.084 307.189 439.168 306.378 439.254 305.543 C439.857 298.984 440.021 292.876 439.156 286.34 C439 284 439 284 439.483 282.126 C440.029 279.882 440.123 277.953 440.12 275.647 C440.122 274.783 440.123 273.919 440.124 273.029 C440.121 272.09 440.117 271.15 440.114 270.183 C440.114 268.689 440.114 268.689 440.114 267.166 C440.113 263.876 440.105 260.587 440.098 257.297 C440.096 255.016 440.094 252.735 440.093 250.453 C440.09 244.45 440.08 238.446 440.069 232.442 C440.058 226.316 440.054 220.189 440.049 214.062 C440.038 202.042 440.021 190.021 440 178 C439.34 178 438.68 178 438 178 C437.754 178.855 437.754 178.855 437.503 179.726 C435.387 186.941 432.959 194.026 430.465 201.117 C430.022 202.381 429.58 203.645 429.137 204.909 C428.21 207.557 427.281 210.204 426.351 212.851 C425.191 216.151 424.035 219.452 422.879 222.753 C417.8 237.258 412.674 251.746 407.493 266.216 C405.119 272.851 402.767 279.494 400.449 286.148 C396.715 296.864 392.875 307.541 389.037 318.219 C383.085 334.777 377.15 351.339 371.312 367.938 C367.294 379.359 363.231 390.761 359.048 402.123 C357.823 405.487 356.627 408.861 355.43 412.234 C354.537 414.719 353.644 417.203 352.75 419.688 C352.337 420.866 351.925 422.044 351.5 423.258 C350.904 424.899 350.904 424.899 350.297 426.574 C349.95 427.55 349.603 428.525 349.245 429.53 C347.838 432.322 346.709 433.469 344 435 C337.166 435.759 337.166 435.759 333.575 433.421 C330.513 430.542 329.177 427.608 327.695 423.77 C327.408 423.061 327.121 422.352 326.825 421.622 C325.912 419.357 325.018 417.085 324.125 414.812 C323.534 413.336 322.941 411.86 322.348 410.385 C321.156 407.42 319.971 404.452 318.79 401.483 C314.812 391.499 310.773 381.555 306.264 371.797 C303.891 366.545 301.698 361.216 299.496 355.89 C298.675 353.907 297.848 351.927 297.021 349.947 C296.497 348.682 295.973 347.417 295.449 346.152 C294.978 345.018 294.507 343.883 294.022 342.715 C293 340 293 340 293 338 C291.68 337.67 290.36 337.34 289 337 C289.66 336.67 290.32 336.34 291 336 C288.308 328.642 285.37 321.541 281.996 314.471 C279.115 308.366 276.489 302.161 273.875 295.938 C269.724 286.058 265.517 276.205 261.25 266.375 C260.974 265.738 260.697 265.101 260.412 264.444 C256.293 254.955 252.161 245.471 248 236 C246.204 237.796 246.87 240.501 246.866 242.924 C246.862 244.212 246.858 245.5 246.853 246.828 C246.854 248.269 246.854 249.71 246.855 251.152 C246.852 252.659 246.848 254.167 246.845 255.675 C246.836 259.785 246.833 263.895 246.833 268.005 C246.832 270.575 246.83 273.146 246.827 275.716 C246.818 284.69 246.814 293.665 246.815 302.639 C246.815 310.989 246.805 319.338 246.789 327.687 C246.776 334.862 246.771 342.037 246.771 349.212 C246.771 353.493 246.769 357.775 246.758 362.056 C246.748 366.094 246.748 370.131 246.755 374.169 C246.757 375.642 246.754 377.116 246.748 378.59 C246.416 397.179 246.416 397.179 255 413 C260.28 417.163 265.587 418.472 271.986 419.979 C277.534 421.433 277.534 421.433 280.023 424.465 C281.305 427.792 281.1 429.625 280 433 C277.567 435.528 276.152 435.983 272.629 436.381 C271.272 436.399 269.914 436.4 268.557 436.388 C267.442 436.396 267.442 436.396 266.304 436.404 C263.849 436.417 261.396 436.409 258.941 436.398 C257.233 436.4 255.524 436.403 253.815 436.407 C250.235 436.412 246.655 436.405 243.075 436.391 C238.49 436.374 233.907 436.384 229.322 436.402 C225.794 436.413 222.265 436.409 218.737 436.401 C217.047 436.399 215.357 436.402 213.666 436.409 C211.302 436.417 208.937 436.405 206.573 436.388 C205.877 436.394 205.181 436.4 204.464 436.407 C200.162 436.351 197.419 435.645 194 433 C193.406 431.062 193.406 431.062 193.5 429 C193.51 428.319 193.521 427.639 193.531 426.938 C194.161 424.334 194.822 423.586 197 422 C200.074 420.861 203.145 419.906 206.287 418.982 C211.401 417.401 216.17 415.522 219.426 411.035 C219.718 410.384 220.011 409.733 220.312 409.062 C220.618 408.414 220.924 407.766 221.238 407.098 C223.055 402.095 223.147 397.185 223.14 391.916 C223.143 391.106 223.146 390.297 223.149 389.463 C223.158 386.754 223.16 384.045 223.161 381.336 C223.166 379.393 223.171 377.449 223.176 375.506 C223.189 370.229 223.196 364.952 223.2 359.676 C223.203 356.38 223.207 353.084 223.212 349.788 C223.225 339.479 223.235 329.169 223.239 318.859 C223.243 306.953 223.261 295.047 223.29 283.141 C223.311 273.939 223.322 264.737 223.323 255.536 C223.324 250.039 223.33 244.542 223.348 239.045 C223.364 233.877 223.366 228.709 223.358 223.542 C223.357 221.644 223.361 219.747 223.371 217.849 C223.384 215.261 223.378 212.673 223.367 210.084 C223.376 209.332 223.384 208.58 223.392 207.804 C223.35 203.355 222.719 200.549 220 197 C216.176 193.987 211.851 193.013 207.207 191.844 C205 191 205 191 203 188 C202.625 185.062 202.625 185.062 203 182 C205.035 179.397 206.242 178.155 209.515 177.485 C210.459 177.479 211.403 177.473 212.376 177.467 C213.989 177.443 213.989 177.443 215.634 177.419 C216.791 177.424 217.948 177.428 219.141 177.434 C220.337 177.427 221.533 177.421 222.765 177.415 C225.297 177.408 227.829 177.411 230.361 177.424 C234.222 177.437 238.081 177.403 241.941 177.365 C244.404 177.364 246.866 177.366 249.328 177.371 C250.477 177.358 251.627 177.345 252.811 177.331 C259.765 177.411 264.693 178.293 270 183 C272.074 185.715 272.074 185.715 273.688 188.938 C274.003 189.564 274.319 190.19 274.644 190.836 C279.665 201.059 284.015 211.623 288.48 222.099 C290.753 227.433 293.062 232.75 295.379 238.065 C302.214 253.756 308.919 269.503 315.625 285.25 C316.347 286.945 316.347 286.945 317.083 288.675 C326.772 311.429 336.414 334.202 346 357 C346.66 357 347.32 357 348 357 C354.401 340.17 360.498 323.248 366.438 306.25 C368.018 301.734 369.601 297.218 371.184 292.703 C371.578 291.577 371.973 290.45 372.38 289.29 C375.608 280.09 378.882 270.907 382.166 261.727 C386.88 248.552 391.548 235.361 396.214 222.17 C396.95 220.089 397.687 218.008 398.423 215.927 C403.599 201.302 408.769 186.676 413.906 172.037 C414.571 170.142 415.236 168.246 415.902 166.351 C417.958 160.495 420.011 154.638 422.06 148.78 C422.794 146.688 423.528 144.596 424.262 142.504 C424.584 141.581 424.906 140.658 425.237 139.706 C432.833 118.087 432.833 118.087 438.75 114.188 C447.353 111.044 456.844 111.82 465.883 111.797 C467.019 111.793 467.019 111.793 468.178 111.788 C472.179 111.773 476.18 111.764 480.181 111.76 C484.301 111.754 488.421 111.73 492.541 111.702 C495.724 111.683 498.907 111.678 502.09 111.676 C503.608 111.673 505.127 111.665 506.646 111.652 C508.771 111.635 510.895 111.637 513.02 111.644 C514.226 111.64 515.432 111.636 516.675 111.633 C520.398 112.044 522.816 113.057 526 115 C527.437 117.875 527.382 119.819 527 123 C523.197 126.884 519.174 127.998 514 129.062 C505.883 130.747 505.883 130.747 499.488 135.762 C499.1 136.397 498.712 137.033 498.312 137.688 C497.917 138.31 497.521 138.933 497.113 139.574 C494.005 146.346 493.71 152.946 493.739 160.265 C493.735 161.273 493.732 162.281 493.728 163.319 C493.717 166.682 493.721 170.045 493.725 173.407 C493.721 175.824 493.716 178.241 493.71 180.658 C493.698 186.533 493.695 192.409 493.698 198.284 C493.699 203.063 493.698 207.841 493.693 212.62 C493.693 213.301 493.692 213.982 493.692 214.684 C493.69 216.068 493.689 217.452 493.688 218.837 C493.677 231.806 493.679 244.776 493.685 257.745 C493.691 269.593 493.679 281.442 493.66 293.29 C493.641 305.473 493.633 317.656 493.636 329.839 C493.638 336.672 493.636 343.505 493.622 350.338 C493.608 356.766 493.611 363.193 493.624 369.621 C493.626 371.976 493.624 374.33 493.615 376.685 C493.605 379.908 493.613 383.131 493.626 386.354 C493.618 387.278 493.611 388.201 493.603 389.153 C493.679 398.36 495.589 407.425 501 415 C505.133 418.749 508.38 419.455 513.754 419.531 C519.927 418.071 522.933 412.523 526.062 407.5 C526.77 406.382 526.77 406.382 527.492 405.241 C529.007 402.834 530.505 400.418 532 398 C532.734 396.822 532.734 396.822 533.483 395.62 C544.583 377.757 554.397 359.19 563 340 C563.702 338.437 563.702 338.437 564.418 336.842 C568.057 328.548 571.155 320.16 573.988 311.559 C574.689 309.433 575.403 307.311 576.119 305.189 C581.35 290.41 581.35 290.41 583 275 C583.66 275 584.32 275 585 275 C585.054 274.414 585.108 273.829 585.164 273.226 C585.605 268.619 586.116 264.036 586.754 259.453 C590.371 232.442 591.274 203.845 586 177 C585.694 175.44 585.694 175.44 585.382 173.848 C582.404 159.144 578.497 144.96 573 131 C572.731 130.308 572.462 129.616 572.185 128.903 C567.615 117.317 561.868 102.868 553 94 C552.032 92.294 551.065 90.588 550.106 88.877 C543.952 78.437 535.011 69.011 526.492 60.492 C524.901 58.901 523.337 57.284 521.809 55.633 C496.667 29.041 462.115 12.637 427 4 C425.644 3.661 425.644 3.661 424.261 3.315 C410.159 -0.036 396.107 -0.361 381.688 -0.375 C380.794 -0.377 379.901 -0.379 378.98 -0.381 C368.656 -0.379 358.89 -0.029 348.837 2.556 C346.839 3.039 344.99 3.146 342.938 3.25 C298.916 7.464 253.182 37.017 225.359 70.325 C214.761 83.387 204.742 97.288 198.355 112.953 C197 116 197 116 195 117 C194.273 118.917 194.273 118.917 193.688 121.188 C192.183 125.873 190.711 128.711 187 132 C183.148 132.676 181.109 132.729 177.812 130.562 C176.234 128.331 175.273 126.473 174.215 123.984 C168.425 110.747 161.591 97.639 153 86 C152.609 85.469 152.218 84.938 151.815 84.392 C118.591 39.689 70.823 10.674 15.93 1.578 C8.778 0.526 1.734 -0.163 -5.496 -0.238 C-6.279 -0.248 -7.061 -0.258 -7.867 -0.268 C-64.905 -0.839 -115.043 16.769 -157 56 C-157.936 56.87 -158.872 57.74 -159.836 58.637 C-177.326 75.281 -190.907 96.167 -201 118 C-201.304 118.648 -201.608 119.296 -201.921 119.963 C-212.921 143.555 -219.559 169.071 -222 195 C-222.11 196.054 -222.219 197.109 -222.332 198.195 C-229.123 274.793 -200.28 352.917 -155 414 C-154.239 414.852 -153.479 415.704 -152.695 416.582 C-149.223 421.535 -149.858 428.039 -149.902 433.902 C-149.904 434.625 -149.905 435.347 -149.907 436.092 C-149.912 438.374 -149.925 440.656 -149.938 442.938 C-149.943 444.495 -149.947 446.053 -149.951 447.611 C-149.962 451.408 -149.979 455.204 -150 459 C-150.66 459.33 -151.32 459.66 -152 460 C-152.495 459.051 -152.99 458.102 -153.5 457.125 C-155.242 454.069 -157.216 451.449 -159.473 448.754 C-164.574 442.438 -169.032 435.734 -173.509 428.97 C-174.926 426.83 -176.352 424.695 -177.779 422.561 C-187.191 408.432 -195.862 393.898 -204 379 C-204.458 378.165 -204.916 377.33 -205.387 376.47 C-224.106 342.11 -237.008 305.796 -243.555 267.182 C-243.909 264.967 -243.909 264.967 -245 263 C-245.214 260.454 -245.377 257.926 -245.5 255.375 C-245.581 253.816 -245.664 252.258 -245.746 250.699 C-245.787 249.91 -245.828 249.12 -245.871 248.306 C-246.06 244.93 -246.318 241.56 -246.562 238.188 C-249.256 196.024 -243.055 153.752 -226 115 C-225.486 113.814 -225.486 113.814 -224.962 112.604 C-213.742 86.938 -197.379 63.708 -177.753 43.784 C-176.112 42.114 -174.493 40.424 -172.879 38.727 C-165.817 31.377 -158.168 25.081 -150 19 C-149.43 18.569 -148.86 18.139 -148.273 17.695 C-139.3 10.934 -129.959 5.194 -120 0 C-118.948 -0.555 -118.948 -0.555 -117.874 -1.121 C-107.852 -6.335 -97.578 -10.389 -86.875 -14 C-85.737 -14.386 -84.599 -14.772 -83.427 -15.17 C-78.527 -16.769 -73.903 -18.154 -68.758 -18.625 C-67.518 -18.749 -66.278 -18.873 -65 -19 C-64.67 -19.66 -64.34 -20.32 -64 -21 C-62.057 -21.487 -62.057 -21.487 -59.512 -21.816 C-58.577 -21.941 -57.641 -22.065 -56.678 -22.193 C-55.691 -22.315 -54.704 -22.437 -53.688 -22.562 C-52.271 -22.751 -52.271 -22.751 -50.826 -22.943 C15.415 -31.533 82.52 -14.622 133.178 29.71 Z M347 359 C348 361 348 361 348 361 Z M248 240 C250 241 250 241 250 241 Z M7 622 C7.66 622.66 8.32 623.32 9 624 C8.34 624 7.68 624 7 624 C7 623.34 7 622.68 7 622 Z M247 683 C249 684 249 684 249 684 Z " fill="#E4B9AD" transform="translate(329,157)"/>
<path d="M0 0 C1.417 -0.009 1.417 -0.009 2.863 -0.017 C3.898 -0.018 4.933 -0.02 5.999 -0.021 C7.09 -0.026 8.182 -0.031 9.306 -0.036 C12.925 -0.05 16.543 -0.057 20.162 -0.063 C22.674 -0.068 25.187 -0.074 27.699 -0.08 C32.298 -0.089 36.896 -0.095 41.495 -0.098 C48.253 -0.103 55.011 -0.12 61.77 -0.149 C67.631 -0.174 73.491 -0.181 79.353 -0.183 C81.842 -0.186 84.331 -0.194 86.821 -0.207 C90.306 -0.224 93.791 -0.222 97.276 -0.216 C98.303 -0.225 99.33 -0.234 100.388 -0.244 C106.151 -0.21 110.328 0.307 115.396 3.14 C116.834 6.015 116.778 7.959 116.396 11.14 C111.806 15.986 106.451 16.396 100.166 17.387 C94.268 18.487 90.395 20.608 86.396 25.14 C82.411 32.58 82.249 39.81 82.258 48.04 C82.256 49.032 82.253 50.025 82.25 51.048 C82.242 54.373 82.24 57.698 82.239 61.023 C82.234 63.408 82.229 65.794 82.223 68.179 C82.212 73.319 82.204 78.459 82.197 83.599 C82.187 91.747 82.166 99.895 82.144 108.043 C82.137 110.837 82.129 113.63 82.122 116.424 C82.119 117.472 82.119 117.472 82.116 118.54 C82.095 126.486 82.076 134.432 82.059 142.377 C82.057 143.103 82.055 143.829 82.054 144.577 C82.027 156.297 82.009 168.018 81.992 179.738 C81.974 191.807 81.945 203.875 81.907 215.944 C81.886 222.706 81.871 229.467 81.868 236.228 C81.866 242.606 81.85 248.983 81.824 255.361 C81.817 257.683 81.815 260.004 81.818 262.326 C81.844 283.326 80.95 304.342 73.396 324.14 C72.954 325.326 72.512 326.512 72.057 327.734 C61.405 354.406 39.561 378.147 13.396 390.14 C-8.281 398.812 -33.643 401.179 -55.704 392.295 C-70.564 385.901 -83.892 376.335 -90.799 361.207 C-96.008 347.83 -97.927 333.091 -92.533 319.43 C-88.313 310.591 -83.006 303.915 -73.592 300.387 C-64.741 297.9 -55.566 298.659 -47.354 302.765 C-43.289 306.276 -40.086 309.959 -39.258 315.423 C-39.167 322.02 -40.693 326.689 -43.541 332.578 C-48.061 342.652 -50.189 350.713 -46.732 361.562 C-43.904 368.021 -39.914 371.895 -33.416 374.578 C-31.825 375.137 -30.221 375.661 -28.604 376.14 C-28.009 376.331 -27.415 376.522 -26.803 376.719 C-14.234 379.13 -1.712 377.042 9.209 370.453 C19.783 362.766 24.476 351.384 26.642 338.839 C28.824 324.854 28.812 310.993 28.769 296.867 C28.77 294.072 28.775 291.277 28.78 288.483 C28.789 281.731 28.783 274.979 28.771 268.228 C28.757 260.349 28.759 252.471 28.761 244.592 C28.764 230.533 28.752 216.475 28.733 202.416 C28.714 188.798 28.707 175.18 28.712 161.561 C28.718 146.688 28.718 131.815 28.707 116.942 C28.705 115.356 28.704 113.769 28.703 112.182 C28.702 111.402 28.702 110.621 28.701 109.817 C28.697 104.334 28.698 98.851 28.7 93.367 C28.702 86.687 28.696 80.007 28.682 73.327 C28.675 69.923 28.671 66.519 28.675 63.115 C28.678 59.42 28.669 55.724 28.657 52.028 C28.661 50.962 28.665 49.896 28.669 48.797 C28.612 39.144 28.216 30.877 21.244 23.762 C14.799 18.107 6.35 17.307 -1.916 16.765 C-5.177 16.457 -6.742 16.068 -9.729 14.515 C-11.604 12.14 -11.604 12.14 -12.166 8.64 C-11.527 4.663 -10.791 3.509 -7.604 1.14 C-4.747 0.188 -2.964 0.011 0 0 Z M-74.604 299.14 C-72.604 300.14 -72.604 300.14 -72.604 300.14 Z M-53.604 299.14 C-51.604 300.14 -51.604 300.14 -51.604 300.14 Z " fill="#E4B9AD" transform="translate(291.60357666015625,268.85955810546875)"/>
<path d="M0 0 C6.813 4.222 10.888 9.438 15.023 16.254 C15.539 15.594 16.055 14.934 16.586 14.254 C17.39 13.264 18.195 12.274 19.023 11.254 C19.533 10.615 20.042 9.975 20.566 9.316 C25.206 3.711 30.05 -0.422 37.023 -2.746 C46.388 -3.537 53.771 -2.985 61.211 3.02 C67.282 8.689 71.322 14.838 72.023 23.254 C72.127 24.45 72.23 25.646 72.336 26.879 C72.038 42.554 61.263 55.535 51.023 66.254 C49.786 67.663 48.555 69.079 47.336 70.504 C42.345 76.23 36.973 81.421 31.195 86.348 C29.605 87.743 28.059 89.188 26.539 90.66 C23.02 94.03 19.961 96.818 15.523 98.879 C10.626 98.004 8.227 95.382 4.746 91.941 C2.623 89.846 0.486 87.894 -1.77 85.949 C-17.714 72.101 -39.45 52.964 -41.191 30.48 C-41.402 23.794 -40.551 18.406 -37.977 12.254 C-37.594 11.02 -37.594 11.02 -37.203 9.762 C-35.609 6.503 -33.677 5.15 -30.727 3.066 C-29.793 2.392 -28.86 1.718 -27.898 1.023 C-19.3 -4.184 -8.954 -4.639 0 0 Z " fill="#E4B9AD" transform="translate(451.9765625,400.74609375)"/>
<path d="M0 0 C0.33 0 0.66 0 1 0 C1 1.98 1 3.96 1 6 C0.67 6 0.34 6 0 6 C0 4.02 0 2.04 0 0 Z " fill="#E6BEB3" transform="translate(823,538)"/>
<path d="M0 0 C4 1 4 1 4 1 Z " fill="#E5BAAE" transform="translate(727,157)"/>
<path d="M0 0 C2 1 2 1 2 1 Z " fill="#E5BAAE" transform="translate(235,662)"/>
<path d="M0 0 C3 1 3 1 3 1 Z " fill="#E5BAAE" transform="translate(290,286)"/>
<path d="M0 0 C0.66 0.66 1.32 1.32 2 2 C1.34 2 0.68 2 0 2 C0 1.34 0 0.68 0 0 Z " fill="#E6BEB3" transform="translate(481,244)"/>
<path d="M0 0 C0.99 0.495 0.99 0.495 2 1 C1.01 1.495 1.01 1.495 0 2 C0 1.34 0 0.68 0 0 Z " fill="#E5BAAE" transform="translate(684,158)"/>
<path d="M0 0 C0.99 0.495 0.99 0.495 2 1 C1.01 1.495 1.01 1.495 0 2 C0 1.34 0 0.68 0 0 Z " fill="#E6BEB3" transform="translate(336,158)"/>
<path d="M0 0 C3 1 3 1 3 1 Z " fill="#E5BAAE" transform="translate(298,157)"/>
<path d="" fill="#E6BEB3" transform="translate(0,0)"/>
<path d="" fill="#E1B7AB" transform="translate(0,0)"/>
<path d="" fill="#E6BEB3" transform="translate(0,0)"/>
<path d="M0 0 C2 1 2 1 2 1 Z " fill="#E6BEB3" transform="translate(827,595)"/>
<path d="" fill="#E5BAAE" transform="translate(0,0)"/>
<path d="" fill="#E5BAAE" transform="translate(0,0)"/>
<path d="" fill="#E5BAAE" transform="translate(0,0)"/>
<path d="" fill="#DDB4A8" transform="translate(0,0)"/>
<path d="" fill="#E6BEB3" transform="translate(0,0)"/>
<path d="" fill="#E6BEB3" transform="translate(0,0)"/>
<path d="" fill="#E6BEB3" transform="translate(0,0)"/>
<path d="" fill="#E5BCB0" transform="translate(0,0)"/>
<path d="" fill="#DDB4A8" transform="translate(0,0)"/>
<path d="" fill="#E5BCB0" transform="translate(0,0)"/>
<path d="M0 0 C2 1 2 1 2 1 Z " fill="#E5BAAE" transform="translate(544,333)"/>
<path d="" fill="#E6BEB3" transform="translate(0,0)"/>
<path d="M0 0 C2 1 2 1 2 1 Z " fill="#E6BEB3" transform="translate(389,287)"/>
<path d="" fill="#E6BEB3" transform="translate(0,0)"/>
<path d="M0 0 C2 1 2 1 2 1 Z " fill="#E5BAAE" transform="translate(785,171)"/>
<path d="M0 0 C2 1 2 1 2 1 Z " fill="#E5BAAE" transform="translate(741,159)"/>
<path d="M0 0 C2 1 2 1 2 1 Z " fill="#E6BEB3" transform="translate(344,159)"/>
<path d="M0 0 C2 1 2 1 2 1 Z " fill="#E5BAAE" transform="translate(724,157)"/>
<path d="M0 0 C2 1 2 1 2 1 Z " fill="#D8B1A5" transform="translate(657,136)"/>
<path d="" fill="#D4AEA3" transform="translate(0,0)"/>
<path d="" fill="#D4AEA3" transform="translate(0,0)"/>
<path d="" fill="#D4AEA3" transform="translate(0,0)"/>
<path d="" fill="#D4AEA3" transform="translate(0,0)"/>
<path d="" fill="#E5BAAE" transform="translate(0,0)"/>
<path d="" fill="#E5BAAE" transform="translate(0,0)"/>
<path d="" fill="#DDB4A8" transform="translate(0,0)"/>
<path d="" fill="#DDB4A8" transform="translate(0,0)"/>
<path d="" fill="#D4AEA3" transform="translate(0,0)"/>
<path d="" fill="#D4AEA3" transform="translate(0,0)"/>
<path d="" fill="#E6BEB3" transform="translate(0,0)"/>
<path d="" fill="#E5BAAE" transform="translate(0,0)"/>
<path d="" fill="#DDB4A8" transform="translate(0,0)"/>
<path d="" fill="#E5BAAE" transform="translate(0,0)"/>
<path d="" fill="#E6BEB3" transform="translate(0,0)"/>
<path d="" fill="#DDB4A8" transform="translate(0,0)"/>
<path d="" fill="#D4AEA3" transform="translate(0,0)"/>
<path d="" fill="#DDB4A8" transform="translate(0,0)"/>
<path d="" fill="#E6BEB3" transform="translate(0,0)"/>
<path d="" fill="#E6BEB3" transform="translate(0,0)"/>
<path d="" fill="#E5BAAE" transform="translate(0,0)"/>
<path d="" fill="#DDB4A8" transform="translate(0,0)"/>
<path d="" fill="#E6BEB3" transform="translate(0,0)"/>
<path d="" fill="#DDB4A8" transform="translate(0,0)"/>
<path d="" fill="#E5BAAE" transform="translate(0,0)"/>
<path d="" fill="#E5BAAE" transform="translate(0,0)"/>
<path d="" fill="#E6BEB3" transform="translate(0,0)"/>
<path d="" fill="#E5BAAE" transform="translate(0,0)"/>
<path d="" fill="#E5BAAE" transform="translate(0,0)"/>
<path d="" fill="#DDB4A8" transform="translate(0,0)"/>
<path d="" fill="#E6BEB3" transform="translate(0,0)"/>
<path d="" fill="#E5BAAE" transform="translate(0,0)"/>
<path d="" fill="#DDB4A8" transform="translate(0,0)"/>
<path d="" fill="#E6BEB3" transform="translate(0,0)"/>
<path d="" fill="#E5BAAE" transform="translate(0,0)"/>
<path d="" fill="#E5BAAE" transform="translate(0,0)"/>
<path d="" fill="#DDB4A8" transform="translate(0,0)"/>
<path d="" fill="#E6BEB3" transform="translate(0,0)"/>
<path d="" fill="#E6BEB3" transform="translate(0,0)"/>
<path d="" fill="#E6BEB3" transform="translate(0,0)"/>
<path d="" fill="#E6BEB3" transform="translate(0,0)"/>
<path d="" fill="#E6BEB3" transform="translate(0,0)"/>
<path d="" fill="#E5BAAE" transform="translate(0,0)"/>
<path d="" fill="#DDB4A8" transform="translate(0,0)"/>
<path d="" fill="#E6BEB3" transform="translate(0,0)"/>
<path d="" fill="#E5BAAE" transform="translate(0,0)"/>
<path d="" fill="#E6BEB3" transform="translate(0,0)"/>
<path d="" fill="#E6BEB3" transform="translate(0,0)"/>
<path d="" fill="#E5BAAE" transform="translate(0,0)"/>
<path d="" fill="#E6BEB3" transform="translate(0,0)"/>
<path d="" fill="#E6BEB3" transform="translate(0,0)"/>
<path d="" fill="#E6BEB3" transform="translate(0,0)"/>
<path d="" fill="#E5BAAE" transform="translate(0,0)"/>
<path d="" fill="#E6BEB3" transform="translate(0,0)"/>
<path d="" fill="#E6BEB3" transform="translate(0,0)"/>
<path d="" fill="#E6BEB3" transform="translate(0,0)"/>
<path d="" fill="#DDB4A8" transform="translate(0,0)"/>
<path d="" fill="#E6BEB3" transform="translate(0,0)"/>
<path d="" fill="#E6BEB3" transform="translate(0,0)"/>
<path d="" fill="#E6BEB3" transform="translate(0,0)"/>
<path d="" fill="#E6BEB3" transform="translate(0,0)"/>
<path d="" fill="#E6BEB3" transform="translate(0,0)"/>
<path d="" fill="#DDB4A8" transform="translate(0,0)"/>
<path d="" fill="#E6BEB3" transform="translate(0,0)"/>
<path d="" fill="#E6BEB3" transform="translate(0,0)"/>
<path d="" fill="#E6BEB3" transform="translate(0,0)"/>
<path d="" fill="#E6BEB3" transform="translate(0,0)"/>
<path d="" fill="#E6BEB3" transform="translate(0,0)"/>
<path d="" fill="#DDB4A8" transform="translate(0,0)"/>
<path d="" fill="#E6BEB3" transform="translate(0,0)"/>
<path d="" fill="#E6BEB3" transform="translate(0,0)"/>
<path d="" fill="#E6BEB3" transform="translate(0,0)"/>
<path d="" fill="#E6BEB3" transform="translate(0,0)"/>
<path d="" fill="#E6BEB3" transform="translate(0,0)"/>
<path d="" fill="#E6BEB3" transform="translate(0,0)"/>
<path d="" fill="#E6BEB3" transform="translate(0,0)"/>
<path d="" fill="#E6BEB3" transform="translate(0,0)"/>
<path d="" fill="#E6BEB3" transform="translate(0,0)"/>
<path d="" fill="#E6BEB3" transform="translate(0,0)"/>
<path d="" fill="#E6BEB3" transform="translate(0,0)"/>
<path d="" fill="#E6BEB3" transform="translate(0,0)"/>
<path d="" fill="#E6BEB3" transform="translate(0,0)"/>
<path d="" fill="#E6BEB3" transform="translate(0,0)"/>
<path d="" fill="#E6BEB3" transform="translate(0,0)"/>
<path d="" fill="#E6BEB3" transform="translate(0,0)"/>
<path d="" fill="#DDB4A8" transform="translate(0,0)"/>
<path d="" fill="#E6BEB3" transform="translate(0,0)"/>
<path d="" fill="#E6BEB3" transform="translate(0,0)"/>
<path d="" fill="#E6BEB3" transform="translate(0,0)"/>
<path d="" fill="#DDB4A8" transform="translate(0,0)"/>
<path d="" fill="#E6BEB3" transform="translate(0,0)"/>
<path d="" fill="#DDB4A8" transform="translate(0,0)"/>
<path d="" fill="#DDB4A8" transform="translate(0,0)"/>
<path d="" fill="#E6BEB3" transform="translate(0,0)"/>
<path d="" fill="#DDB4A8" transform="translate(0,0)"/>
<path d="" fill="#E6BEB3" transform="translate(0,0)"/>
<path d="" fill="#E6BEB3" transform="translate(0,0)"/>
<path d="" fill="#DDB4A8" transform="translate(0,0)"/>
<path d="" fill="#E5BAAE" transform="translate(0,0)"/>
<path d="" fill="#E6BEB3" transform="translate(0,0)"/>
<path d="" fill="#DDB4A8" transform="translate(0,0)"/>
<path d="" fill="#DDB4A8" transform="translate(0,0)"/>
<path d="" fill="#E6BEB3" transform="translate(0,0)"/>
<path d="" fill="#E6BEB3" transform="translate(0,0)"/>
<path d="" fill="#E6BEB3" transform="translate(0,0)"/>
<path d="" fill="#E5BAAE" transform="translate(0,0)"/>
<path d="" fill="#E6BEB3" transform="translate(0,0)"/>
<path d="" fill="#DDB4A8" transform="translate(0,0)"/>
<path d="" fill="#E5BAAE" transform="translate(0,0)"/>
<path d="" fill="#E5BAAE" transform="translate(0,0)"/>
<path d="" fill="#E6BEB3" transform="translate(0,0)"/>
<path d="" fill="#E5BAAE" transform="translate(0,0)"/>
<path d="" fill="#DDB4A8" transform="translate(0,0)"/>
<path d="" fill="#E6BEB3" transform="translate(0,0)"/>
<path d="" fill="#E6BEB3" transform="translate(0,0)"/>
<path d="" fill="#E5BAAE" transform="translate(0,0)"/>
<path d="" fill="#E6BEB3" transform="translate(0,0)"/>
<path d="" fill="#E6BEB3" transform="translate(0,0)"/>
<path d="" fill="#E6BEB3" transform="translate(0,0)"/>
<path d="" fill="#E6BEB3" transform="translate(0,0)"/>
<path d="" fill="#E6BEB3" transform="translate(0,0)"/>
<path d="" fill="#DDB4A8" transform="translate(0,0)"/>
<path d="" fill="#DDB4A8" transform="translate(0,0)"/>
<path d="" fill="#DDB4A8" transform="translate(0,0)"/>
<path d="" fill="#E5BAAE" transform="translate(0,0)"/>
<path d="" fill="#E5BAAE" transform="translate(0,0)"/>
<path d="" fill="#E5BAAE" transform="translate(0,0)"/>
<path d="" fill="#E5BAAE" transform="translate(0,0)"/>
<path d="" fill="#E5BAAE" transform="translate(0,0)"/>
<path d="" fill="#E6BEB3" transform="translate(0,0)"/>
<path d="" fill="#E5BAAE" transform="translate(0,0)"/>
<path d="" fill="#E6BEB3" transform="translate(0,0)"/>
<path d="" fill="#DDB4A8" transform="translate(0,0)"/>
<path d="" fill="#DDB4A8" transform="translate(0,0)"/>
<path d="" fill="#E6BEB3" transform="translate(0,0)"/>
<path d="" fill="#E5BAAE" transform="translate(0,0)"/>
<path d="" fill="#E6BEB3" transform="translate(0,0)"/>
<path d="" fill="#E5BAAE" transform="translate(0,0)"/>
<path d="" fill="#E6BEB3" transform="translate(0,0)"/>
<path d="" fill="#E5BAAE" transform="translate(0,0)"/>
<path d="" fill="#E5BAAE" transform="translate(0,0)"/>
<path d="" fill="#E6BEB3" transform="translate(0,0)"/>
<path d="" fill="#E6BEB3" transform="translate(0,0)"/>
<path d="" fill="#E5BAAE" transform="translate(0,0)"/>
<path d="" fill="#D4AEA3" transform="translate(0,0)"/>
<path d="" fill="#E5BAAE" transform="translate(0,0)"/>
<path d="" fill="#DDB4A8" transform="translate(0,0)"/>
<path d="" fill="#E5BAAE" transform="translate(0,0)"/>
<path d="" fill="#E6BEB3" transform="translate(0,0)"/>
<path d="" fill="#DDB4A8" transform="translate(0,0)"/>
<path d="" fill="#E5BAAE" transform="translate(0,0)"/>
<path d="" fill="#E5BAAE" transform="translate(0,0)"/>
<path d="" fill="#E5BAAE" transform="translate(0,0)"/>
<path d="" fill="#E5BAAE" transform="translate(0,0)"/>
<path d="" fill="#E5BAAE" transform="translate(0,0)"/>
<path d="" fill="#E6BEB3" transform="translate(0,0)"/>
<path d="" fill="#E6BEB3" transform="translate(0,0)"/>
<path d="" fill="#E5BAAE" transform="translate(0,0)"/>
<path d="" fill="#E5BAAE" transform="translate(0,0)"/>
<path d="" fill="#E5BAAE" transform="translate(0,0)"/>
<path d="" fill="#E6BEB3" transform="translate(0,0)"/>
<path d="" fill="#E6BEB3" transform="translate(0,0)"/>
<path d="" fill="#E5BAAE" transform="translate(0,0)"/>
<path d="" fill="#E5BAAE" transform="translate(0,0)"/>
<path d="" fill="#E5BAAE" transform="translate(0,0)"/>
<path d="" fill="#E5BAAE" transform="translate(0,0)"/>
<path d="" fill="#E5BAAE" transform="translate(0,0)"/>
<path d="" fill="#E5BAAE" transform="translate(0,0)"/>
<path d="" fill="#E5BAAE" transform="translate(0,0)"/>
<path d="" fill="#E5BAAE" transform="translate(0,0)"/>
<path d="" fill="#E5BAAE" transform="translate(0,0)"/>
<path d="" fill="#D4AEA3" transform="translate(0,0)"/>
<path d="" fill="#DDB4A8" transform="translate(0,0)"/>
<path d="" fill="#D4AEA3" transform="translate(0,0)"/>
<path d="" fill="#DDB4A8" transform="translate(0,0)"/>
<path d="" fill="#DDB4A8" transform="translate(0,0)"/>
<path d="" fill="#D4AEA3" transform="translate(0,0)"/>
<path d="" fill="#D4AEA3" transform="translate(0,0)"/>
</svg>